<?xml version="1.0" encoding="UTF-8"?>
<svg id="box-piktogram" xmlns="http://www.w3.org/2000/svg" version="1.1" viewBox="0 0 200 200">
  <!-- Generator: Adobe Illustrator 29.3.1, SVG Export Plug-In . SVG Version: 2.1.0 Build 151)  -->
  <defs>
    <style>
      .st0 {
        fill: #615858;
      }

      .st1 {
        fill: #fff;
      }

      .st2 {
        opacity: .9;
      }

      .st3 {
        fill: none;
        stroke: #000;
        stroke-linecap: round;
        stroke-miterlimit: 10;
        stroke-width: 3px;
      }

      .st4 {
        fill: #f4f3f1;
      }
    </style>
  </defs>
  <path class="st3" d="M62.9,23.4"/>
  <g>
    <path class="st0" d="M151.6,22.3h-14.1c-.6-1.1-1.8-1.9-3.2-1.9h-68.6c-1.4,0-2.6.8-3.2,1.9h-14.2c-14.4,0-26,11.7-26,26v103.1c0,14.4,11.7,26,26,26h15.5c.6,1.3,1.8,2.1,3.3,2.1h67c1.4,0,2.7-.9,3.3-2.1h14.1c14.4,0,26-11.7,26-26V48.3c0-14.4-11.7-26-26-26ZM58.5,34.2h-7.5c-9.2,0-16.7,7.5-16.7,16.7v98c0,9.2,7.5,16.7,16.7,16.7h7c.4,0,.8.3.8.8s-.3.8-.8.8h-7c-10,0-18.2-8.2-18.2-18.2V50.9c0-10,8.2-18.2,18.2-18.2h7.5c.4,0,.8.3.8.8s-.3.8-.8.8ZM57.4,154.1c.4,0,.7.5.6.9,0,.4-.4.6-.7.6s-.1,0-.2,0c-8.1-1.7-13.4-8.6-13.4-17.5V61.8c0-8.5,5.8-15.8,14.1-17.7.4,0,.8.2.9.6,0,.4-.2.8-.6.9-7.6,1.7-12.9,8.4-12.9,16.3v76.2c0,8.2,4.8,14.5,12.2,16.1ZM63.8,22.3c.5-.6,1.2-.9,2-.9h68.6c.8,0,1.5.4,2,.9H63.8ZM134.2,178.6h-67c-.9,0-1.6-.4-2.1-1.1h71.3c-.5.7-1.3,1.1-2.1,1.1ZM167.2,148.9c0,10-8.2,18.2-18.2,18.2h-6.9c-.4,0-.8-.3-.8-.8s.3-.8.8-.8h6.9c9.2,0,16.7-7.5,16.7-16.7V50.9c0-9.2-7.5-16.7-16.7-16.7h-7.2c-.4,0-.8-.3-.8-.8s.3-.8.8-.8h7.2c10,0,18.2,8.2,18.2,18.2v98ZM142.7,45.4c-.4,0-.7-.5-.6-.9,0-.4.5-.7.9-.6,8.1,1.5,13.3,8.5,13.3,17.9v76.2c0,8.9-5.3,16.1-13.3,17.8,0,0-.1,0-.2,0-.3,0-.7-.2-.7-.6,0-.4.2-.8.6-.9,7.2-1.6,12.1-8.1,12.1-16.3V61.8c0-8.7-4.7-15.1-12.1-16.4Z"/>
    <path class="st1" d="M65.8,20.9h68.6c1.6,0,2.9,1.2,3.1,2.8l1.9,16c0,.8.1,1.6.1,2.4v116.7c0,.9,0,1.8-.2,2.6l-1.9,15c-.2,1.6-1.5,2.7-3.1,2.7h-67c-1.5,0-2.8-1.1-3.1-2.5l-2.7-14.2c-.2-1.3-.4-2.6-.4-3.9V42.6c0-.6,0-1.2,0-1.8l1.5-16.1v-.9c.2-1.6,1.6-2.9,3.2-2.9Z"/>
  </g>
  <rect class="st0" x="81.1" y="81.9" width="40.3" height="38.1"/>
  <g>
    <path class="st1" d="M81.1,122.4l40.3-.7-40.3.7Z"/>
    <rect class="st0" x="81.1" y="121.5" width="40.3" height="1" transform="translate(-2.1 1.8) rotate(-1)"/>
  </g>
  <g>
    <line class="st1" x1="81.1" y1="123.8" x2="121.4" y2="126"/>
    <rect class="st0" x="100.8" y="104.7" width="1" height="40.4" transform="translate(-29 219.1) rotate(-86.8)"/>
  </g>
  <path class="st0" d="M137.3,41.4H63.3c-.4,0-.8-.3-.8-.8s.3-.8.8-.8h74c.4,0,.8.3.8.8s-.3.8-.8.8Z"/>
  <path class="st0" d="M136.3,160.3H63.3c-.4,0-.8-.3-.8-.8s.3-.8.8-.8h73c.4,0,.8.3.8.8s-.3.8-.8.8Z"/>
  <g class="st2">
    <path class="st4" d="M92.5,97.7v-4.2c-.7-1.2-1.4-2.4-2-3.5-.6-1.1-1.1-2.3-1.6-3.5h1.7c.3,1,.7,2,1.2,2.9.5.9.9,1.9,1.5,2.8.6-1,1-2,1.5-2.9.4-.9.8-1.9,1.2-2.8h1.6c-.5,1.2-1,2.3-1.6,3.4-.6,1.1-1.2,2.3-2,3.5v4.2h-1.5ZM108.6,97.7v-4.2c-.7-1.2-1.4-2.4-2-3.5-.6-1.1-1.1-2.3-1.6-3.5h1.7c.3,1,.7,2,1.2,2.9.5.9.9,1.9,1.5,2.8.6-1,1-2,1.5-2.9.4-.9.8-1.9,1.2-2.8h1.6c-.5,1.2-1,2.3-1.6,3.4-.6,1.1-1.2,2.3-2,3.5v4.2h-1.5ZM95.5,109.6h1.5v5.2c-.2,0-.6.2-1.1.3-.5.1-1.1.2-1.8.2s-1.3-.1-1.8-.4c-.6-.3-1-.6-1.4-1.1-.4-.5-.7-1.1-.9-1.8-.2-.7-.3-1.6-.3-2.5s.1-1.8.4-2.5c.2-.7.6-1.3,1-1.8.4-.5.9-.9,1.5-1.1.6-.3,1.1-.4,1.8-.4s.8,0,1.1,0c.3,0,.6.1.8.2.2,0,.4.2.6.3.1,0,.3.2.3.2l-.5,1.2c-.3-.2-.6-.4-1-.5-.4-.1-.8-.2-1.2-.2s-.9.1-1.3.3c-.4.2-.7.5-1,.9-.3.4-.5.9-.7,1.4-.2.6-.2,1.2-.2,1.9s0,1.3.2,1.8c.1.6.3,1,.6,1.4.3.4.6.7,1,.9.4.2.8.3,1.4.3s.6,0,.8,0c.2,0,.3,0,.4-.1v-4.2ZM109,114.1c.8,0,1.3-.1,1.7-.4.4-.3.6-.7.6-1.3s0-.6-.2-.9c-.1-.3-.3-.5-.6-.7-.2-.2-.5-.4-.8-.5-.3-.1-.6-.3-.9-.4-.4-.1-.7-.3-1-.5-.3-.2-.6-.4-.9-.6-.3-.2-.5-.5-.6-.8-.1-.3-.2-.7-.2-1.2,0-1,.3-1.7.9-2.3.6-.6,1.5-.8,2.6-.8s.6,0,.9,0c.3,0,.6,0,.8.1.3,0,.5.1.7.2.2,0,.4.2.5.3l-.5,1.2c-.2-.1-.6-.3-1-.4-.4-.1-.9-.2-1.4-.2s-1,.1-1.4.4c-.4.3-.6.7-.6,1.2s0,.6.2.8c.1.2.3.4.5.6.2.2.4.3.7.4.3.1.6.3.9.4.5.2.9.4,1.2.6.4.2.7.4,1,.7.3.3.5.6.6.9.2.4.2.8.2,1.3,0,1-.3,1.7-1,2.3-.7.5-1.6.8-2.8.8s-.8,0-1.1,0c-.3,0-.7-.1-.9-.2-.3,0-.5-.2-.7-.3-.2,0-.4-.2-.5-.2l.5-1.2c.2.1.6.3,1.1.5.5.2,1,.3,1.7.3Z"/>
  </g>
</svg>